<svg width="769" height="130" viewBox="0 0 769 130" fill="none" xmlns="http://www.w3.org/2000/svg">
<g clip-path="url(#clip0_1_7)">
<path d="M649.5 -0.5L736.5 130.5" stroke="white" stroke-width="20" stroke-linecap="square"/>
<path d="M741 1.72814e-08L639 138.359" stroke="#1F9CFF" stroke-width="11" stroke-linecap="square"/>
<g filter="url(#filter0_d_1_7)">
<circle cx="693" cy="65" r="25" fill="#D9E11A"/>
</g>
<path d="M650 85L625 65L650 45" stroke="#1F9CFF" stroke-width="11" stroke-linecap="square" stroke-linejoin="round"/>
<path d="M736 85L761 65L736 45" stroke="#1F9CFF" stroke-width="11" stroke-linecap="square" stroke-linejoin="round"/>
<path d="M0.40696 114V17.2727H38.5689C45.9053 17.2727 52.1554 18.6739 57.3193 21.4762C62.4831 24.247 66.4189 28.1042 69.1268 33.0476C71.8661 37.9595 73.2358 43.6271 73.2358 50.0504C73.2358 56.4737 71.8504 62.1413 69.0796 67.0533C66.3087 71.9652 62.2942 75.7908 57.0359 78.5302C51.8091 81.2695 45.4802 82.6392 38.0494 82.6392H13.7259V66.2504H34.7433C38.6791 66.2504 41.9222 65.5734 44.4727 64.2195C47.0546 62.834 48.9753 60.9291 50.2347 58.5046C51.5257 56.0486 52.1712 53.2306 52.1712 50.0504C52.1712 46.8388 51.5257 44.0365 50.2347 41.6435C48.9753 39.219 47.0546 37.3455 44.4727 36.0231C41.8907 34.6692 38.6161 33.9922 34.6488 33.9922H20.8576V114H0.40696ZM132.663 83.1115V41.4545H152.783V114H133.466V100.823H132.71C131.073 105.074 128.349 108.49 124.54 111.072C120.761 113.654 116.148 114.945 110.701 114.945C105.852 114.945 101.586 113.843 97.9017 111.638C94.2178 109.434 91.3367 106.301 89.2586 102.24C87.212 98.1779 86.1729 93.3132 86.1414 87.6456V41.4545H106.261V84.0561C106.293 88.3383 107.442 91.7231 109.709 94.2106C111.976 96.698 115.015 97.9418 118.825 97.9418C121.249 97.9418 123.516 97.3907 125.626 96.2887C127.735 95.1552 129.436 93.4864 130.727 91.2823C132.049 89.0782 132.695 86.3546 132.663 83.1115ZM188.997 17.2727V114H168.877V17.2727H188.997ZM265.474 62.1413L247.054 63.2749C246.74 61.7005 246.063 60.2836 245.024 59.0241C243.984 57.7332 242.615 56.7099 240.915 55.9542C239.246 55.167 237.246 54.7734 234.916 54.7734C231.799 54.7734 229.17 55.4347 227.029 56.7571C224.888 58.0481 223.817 59.7798 223.817 61.9524C223.817 63.6842 224.51 65.1483 225.895 66.3448C227.281 67.5413 229.658 68.5017 233.027 69.2258L246.157 71.8707C253.21 73.3191 258.468 75.6491 261.932 78.8608C265.395 82.0724 267.127 86.2917 267.127 91.5185C267.127 96.273 265.726 100.445 262.924 104.034C260.153 107.624 256.343 110.426 251.494 112.441C246.677 114.425 241.119 115.417 234.822 115.417C225.218 115.417 217.567 113.417 211.868 109.419C206.2 105.388 202.879 99.9097 201.902 92.9826L221.692 91.9435C222.29 94.8718 223.738 97.1074 226.037 98.6502C228.336 100.162 231.28 100.917 234.869 100.917C238.396 100.917 241.229 100.24 243.37 98.8864C245.543 97.5009 246.645 95.7219 246.677 93.5494C246.645 91.7231 245.874 90.2275 244.362 89.0625C242.851 87.866 240.521 86.9529 237.372 86.3232L224.809 83.82C217.725 82.4031 212.45 79.9471 208.987 76.4521C205.555 72.957 203.839 68.5017 203.839 63.0859C203.839 58.4259 205.098 54.4113 207.617 51.0423C210.168 47.6732 213.741 45.0755 218.339 43.2493C222.967 41.4231 228.383 40.5099 234.586 40.5099C243.748 40.5099 250.959 42.4464 256.217 46.3192C261.507 50.1921 264.593 55.4661 265.474 62.1413ZM300.483 115.37C295.855 115.37 291.73 114.567 288.109 112.961C284.488 111.324 281.623 108.915 279.513 105.735C277.435 102.523 276.396 98.5243 276.396 93.7383C276.396 89.708 277.136 86.3232 278.616 83.5838C280.096 80.8445 282.111 78.6404 284.661 76.9716C287.212 75.3028 290.109 74.0433 293.352 73.1932C296.626 72.343 300.058 71.7448 303.648 71.3984C307.867 70.9576 311.268 70.5483 313.85 70.1705C316.432 69.7611 318.305 69.1629 319.47 68.3757C320.635 67.5885 321.218 66.4235 321.218 64.8807V64.5973C321.218 61.6061 320.273 59.2918 318.384 57.6545C316.526 56.0172 313.881 55.1985 310.449 55.1985C306.828 55.1985 303.947 56.0014 301.806 57.6072C299.665 59.1816 298.248 61.1652 297.555 63.5582L278.947 62.0469C279.891 57.6387 281.749 53.8288 284.52 50.6172C287.291 47.374 290.864 44.8866 295.241 43.1548C299.649 41.3916 304.75 40.5099 310.544 40.5099C314.574 40.5099 318.431 40.9822 322.115 41.9268C325.83 42.8714 329.121 44.3356 331.986 46.3192C334.883 48.3029 337.166 50.8533 338.834 53.9705C340.503 57.0562 341.338 60.7559 341.338 65.0696V114H322.257V103.94H321.69C320.525 106.207 318.966 108.206 317.014 109.938C315.062 111.638 312.716 112.977 309.977 113.953C307.237 114.897 304.073 115.37 300.483 115.37ZM306.246 101.484C309.205 101.484 311.819 100.902 314.086 99.7365C316.353 98.54 318.132 96.9342 319.423 94.919C320.714 92.9039 321.359 90.6211 321.359 88.0707V80.3722C320.729 80.7815 319.864 81.1593 318.762 81.5057C317.691 81.8205 316.479 82.1197 315.125 82.4031C313.771 82.6549 312.417 82.8911 311.063 83.1115C309.709 83.3004 308.481 83.4736 307.379 83.631C305.018 83.9774 302.955 84.5284 301.192 85.2841C299.429 86.0398 298.059 87.0631 297.083 88.354C296.107 89.6135 295.619 91.1879 295.619 93.0771C295.619 95.8164 296.611 97.9103 298.594 99.3587C300.609 100.776 303.16 101.484 306.246 101.484ZM356.947 114V41.4545H376.453V54.1122H377.209C378.531 49.6096 380.751 46.209 383.868 43.9105C386.985 41.5805 390.575 40.4155 394.637 40.4155C395.644 40.4155 396.731 40.4785 397.896 40.6044C399.061 40.7303 400.084 40.9035 400.966 41.1239V58.9769C400.021 58.6935 398.714 58.4416 397.045 58.2212C395.377 58.0008 393.85 57.8906 392.464 57.8906C389.504 57.8906 386.859 58.5361 384.529 59.8271C382.231 61.0865 380.405 62.8498 379.051 65.1168C377.728 67.3839 377.067 69.9973 377.067 72.957V114H356.947ZM411.746 17.2727H436.967L463.604 82.2614H464.738L491.376 17.2727H516.597V114H496.76V51.0423H495.957L470.925 113.528H457.417L432.385 50.8061H431.582V114H411.746V17.2727ZM566.129 115.417C558.667 115.417 552.244 113.906 546.859 110.883C541.507 107.829 537.382 103.515 534.485 97.9418C531.588 92.3371 530.14 85.7092 530.14 78.0579C530.14 70.5955 531.588 64.0463 534.485 58.4102C537.382 52.774 541.459 48.3816 546.718 45.2329C552.007 42.0843 558.21 40.5099 565.326 40.5099C570.112 40.5099 574.568 41.2814 578.692 42.8242C582.849 44.3356 586.47 46.6184 589.555 49.6726C592.673 52.7268 595.097 56.5682 596.829 61.1967C598.561 65.7938 599.426 71.178 599.426 77.3494V82.8754H538.169V70.4066H580.487C580.487 67.5098 579.857 64.9437 578.598 62.7081C577.339 60.4725 575.591 58.725 573.355 57.4656C571.151 56.1746 568.585 55.5291 565.657 55.5291C562.603 55.5291 559.895 56.2376 557.533 57.6545C555.203 59.0399 553.377 60.9133 552.055 63.2749C550.732 65.6049 550.055 68.2025 550.024 71.0678V82.9226C550.024 86.5121 550.685 89.6135 552.007 92.2269C553.361 94.8403 555.266 96.8555 557.722 98.2724C560.178 99.6893 563.091 100.398 566.46 100.398C568.695 100.398 570.742 100.083 572.6 99.4531C574.458 98.8234 576.048 97.8788 577.37 96.6193C578.692 95.3598 579.7 93.817 580.393 91.9908L599.001 93.2188C598.057 97.6899 596.12 101.594 593.192 104.932C590.295 108.238 586.548 110.82 581.951 112.678C577.386 114.504 572.112 115.417 566.129 115.417Z" fill="white"/>
</g>
<defs>
<filter id="filter0_d_1_7" x="664" y="40" width="58" height="58" filterUnits="userSpaceOnUse" color-interpolation-filters="sRGB">
<feFlood flood-opacity="0" result="BackgroundImageFix"/>
<feColorMatrix in="SourceAlpha" type="matrix" values="0 0 0 0 0 0 0 0 0 0 0 0 0 0 0 0 0 0 127 0" result="hardAlpha"/>
<feOffset dy="4"/>
<feGaussianBlur stdDeviation="2"/>
<feComposite in2="hardAlpha" operator="out"/>
<feColorMatrix type="matrix" values="0 0 0 0 0 0 0 0 0 0 0 0 0 0 0 0 0 0 0.25 0"/>
<feBlend mode="normal" in2="BackgroundImageFix" result="effect1_dropShadow_1_7"/>
<feBlend mode="normal" in="SourceGraphic" in2="effect1_dropShadow_1_7" result="shape"/>
</filter>
<clipPath id="clip0_1_7">
<rect width="769" height="130" fill="white"/>
</clipPath>
</defs>
</svg>
