<svg width="1073" height="237" viewBox="0 0 1073 237" fill="none" xmlns="http://www.w3.org/2000/svg">
<g clip-path="url(#clip0_9_33)">
<path d="M736.818 159.951C727.118 159.951 718.747 158.039 711.704 154.216C704.701 150.352 699.308 144.858 695.525 137.735C691.782 130.571 689.911 122.059 689.911 112.199C689.911 102.62 691.802 94.2487 695.585 87.0849C699.369 79.8809 704.701 74.2866 711.583 70.3022C718.465 66.2776 726.575 64.2653 735.912 64.2653C742.513 64.2653 748.549 65.2916 754.023 67.3442C759.496 69.3967 764.225 72.4353 768.21 76.4599C772.194 80.4845 775.293 85.455 777.507 91.3711C779.72 97.2471 780.827 103.988 780.827 111.595V118.96H700.234V101.815H753.359C753.319 98.6758 752.574 95.8787 751.125 93.4237C749.676 90.9687 747.684 89.057 745.149 87.6886C742.653 86.28 739.776 85.5757 736.516 85.5757C733.216 85.5757 730.258 86.3202 727.642 87.8094C725.026 89.2582 722.953 91.2504 721.424 93.7859C719.894 96.2812 719.089 99.1185 719.009 102.298V119.745C719.009 123.528 719.753 126.848 721.242 129.706C722.732 132.523 724.844 134.716 727.581 136.286C730.318 137.856 733.578 138.64 737.361 138.64C739.977 138.64 742.352 138.278 744.485 137.554C746.618 136.829 748.449 135.763 749.978 134.354C751.508 132.945 752.655 131.215 753.419 129.162L780.525 129.947C779.398 136.024 776.923 141.317 773.1 145.824C769.317 150.292 764.346 153.773 758.188 156.268C752.031 158.723 744.907 159.951 736.818 159.951Z" fill="#101526"/>
<path d="M536.588 34.5636H573.594L604.986 111.112H606.435L637.827 34.5636H674.833V158.2H645.735V82.2554H644.709L615.008 157.415H596.414L566.712 81.8328H565.686V158.2H536.588V34.5636Z" fill="#101526"/>
<path d="M465.035 158.2V65.4727H493.71V82.3761H494.676C496.367 76.2587 499.124 71.7109 502.947 68.7327C506.77 65.7142 511.218 64.205 516.289 64.205C517.657 64.205 519.066 64.3056 520.514 64.5068C521.963 64.6678 523.312 64.9294 524.559 65.2916V90.9486C523.151 90.4656 521.299 90.0833 519.005 89.8015C516.751 89.5198 514.739 89.379 512.968 89.379C509.467 89.379 506.308 90.1638 503.49 91.7334C500.713 93.2627 498.52 95.4159 496.91 98.1929C495.34 100.93 494.556 104.149 494.556 107.852V158.2H465.035Z" fill="#101526"/>
<path d="M391.566 159.77C385.649 159.77 380.397 158.784 375.809 156.811C371.261 154.799 367.659 151.781 365.003 147.756C362.387 143.691 361.079 138.6 361.079 132.483C361.079 127.331 361.985 122.985 363.796 119.443C365.607 115.901 368.102 113.024 371.282 110.81C374.461 108.597 378.123 106.926 382.269 105.799C386.414 104.632 390.841 103.847 395.55 103.445C400.822 102.962 405.068 102.459 408.288 101.936C411.508 101.372 413.842 100.588 415.291 99.5814C416.78 98.535 417.524 97.066 417.524 95.1744V94.8726C417.524 91.7736 416.458 89.379 414.325 87.6886C412.192 85.9983 409.314 85.1531 405.692 85.1531C401.788 85.1531 398.649 85.9983 396.274 87.6886C393.9 89.379 392.391 91.7132 391.747 94.6915L364.52 93.7255C365.325 88.0911 367.398 83.0603 370.738 78.6332C374.119 74.1659 378.747 70.6645 384.623 68.129C390.539 65.5532 397.643 64.2653 405.934 64.2653C411.85 64.2653 417.303 64.9696 422.294 66.3782C427.284 67.7466 431.631 69.7589 435.333 72.4152C439.036 75.0312 441.894 78.2509 443.906 82.0743C445.958 85.8977 446.985 90.2644 446.985 95.1744V158.2H419.215V145.281H418.49C416.84 148.42 414.727 151.076 412.152 153.25C409.616 155.423 406.618 157.053 403.157 158.14C399.736 159.226 395.872 159.77 391.566 159.77ZM400.681 140.451C403.861 140.451 406.718 139.807 409.254 138.52C411.83 137.232 413.882 135.461 415.411 133.207C416.941 130.913 417.706 128.257 417.706 125.238V116.424C416.86 116.867 415.834 117.27 414.627 117.632C413.46 117.994 412.172 118.336 410.763 118.658C409.354 118.98 407.906 119.262 406.416 119.503C404.927 119.745 403.499 119.966 402.13 120.167C399.353 120.61 396.979 121.294 395.007 122.22C393.075 123.146 391.586 124.353 390.539 125.842C389.533 127.291 389.03 129.021 389.03 131.034C389.03 134.092 390.117 136.427 392.29 138.037C394.504 139.646 397.301 140.451 400.681 140.451Z" fill="#101526"/>
<path d="M348.598 93.7859L321.492 94.5103C321.21 92.5785 320.445 90.8681 319.198 89.379C317.95 87.8496 316.32 86.6623 314.308 85.8172C312.336 84.9318 310.042 84.489 307.426 84.489C304.005 84.489 301.087 85.1732 298.672 86.5416C296.298 87.91 295.131 89.7613 295.171 92.0956C295.131 93.9067 295.855 95.4763 297.344 96.8044C298.874 98.1325 301.59 99.199 305.494 100.004L323.363 103.385C332.62 105.155 339.502 108.093 344.01 112.199C348.557 116.304 350.852 121.737 350.892 128.498C350.852 134.857 348.96 140.391 345.217 145.1C341.514 149.809 336.443 153.471 330.004 156.087C323.565 158.663 316.2 159.951 307.909 159.951C294.668 159.951 284.224 157.234 276.577 151.801C268.971 146.327 264.624 139.003 263.537 129.826L292.696 129.102C293.34 132.483 295.01 135.058 297.706 136.829C300.403 138.6 303.844 139.485 308.03 139.485C311.813 139.485 314.892 138.781 317.266 137.373C319.641 135.964 320.848 134.093 320.888 131.758C320.848 129.665 319.922 127.995 318.111 126.748C316.3 125.46 313.463 124.454 309.599 123.729L293.42 120.65C284.123 118.96 277.201 115.841 272.653 111.293C268.105 106.705 265.852 100.869 265.892 93.7859C265.852 87.588 267.502 82.2956 270.842 77.9088C274.182 73.4817 278.932 70.101 285.089 67.7667C291.247 65.4325 298.511 64.2653 306.883 64.2653C319.439 64.2653 329.34 66.9015 336.584 72.1737C343.829 77.4057 347.833 84.6098 348.598 93.7859Z" fill="#101526"/>
<path d="M248.853 34.5636V158.2H219.332V34.5636H248.853Z" fill="#101526"/>
<path d="M171.082 118.175V65.4727H200.542V158.2H172.41V140.934H171.444C169.391 146.609 165.89 151.117 160.94 154.457C156.03 157.757 150.093 159.407 143.131 159.407C136.812 159.407 131.258 157.959 126.469 155.061C121.68 152.163 117.957 148.118 115.3 142.927C112.644 137.695 111.296 131.577 111.256 124.574V65.4727H140.776V118.779C140.817 123.81 142.145 127.774 144.761 130.672C147.377 133.569 150.939 135.018 155.446 135.018C158.384 135.018 161.02 134.374 163.354 133.086C165.729 131.758 167.6 129.847 168.969 127.351C170.377 124.816 171.082 121.757 171.082 118.175Z" fill="#101526"/>
<path d="M0.3573 158.2V34.5636H51.4297C60.6864 34.5636 68.6752 36.3747 75.3964 39.9969C82.1577 43.5788 87.3696 48.5894 91.032 55.0288C94.6944 61.428 96.5256 68.8735 96.5256 77.3655C96.5256 85.8977 94.6542 93.3633 90.9113 99.7625C87.2086 106.121 81.9162 111.052 75.0341 114.553C68.152 118.054 59.9821 119.805 50.5242 119.805H19.0114V96.2611H44.9702C49.4778 96.2611 53.2408 95.4763 56.2593 93.9067C59.318 92.3371 61.6322 90.1437 63.2018 87.3264C64.7714 84.4689 65.5562 81.1486 65.5562 77.3655C65.5562 73.5421 64.7714 70.2419 63.2018 67.4649C61.6322 64.6477 59.318 62.4744 56.2593 60.945C53.2006 59.4157 49.4376 58.651 44.9702 58.651H30.2401V158.2H0.3573Z" fill="#101526"/>
<g clip-path="url(#clip1_9_33)">
<path d="M800.534 165.592L838.339 118.995L800.534 72.3972" stroke="#101526" stroke-width="24" stroke-linecap="round" stroke-linejoin="round"/>
<path d="M887.516 35.1797C891.697 30.0376 899.255 29.2585 904.397 33.4394C909.539 37.6205 910.318 45.1782 906.138 50.3203L850.293 119L906.138 187.68L906.33 187.922C910.293 193.057 909.459 200.445 904.397 204.561C899.336 208.676 891.933 207.986 887.715 203.059L887.516 202.82L825.516 126.57C821.931 122.16 821.931 115.84 825.516 111.43L887.516 35.1797Z" fill="#1F9CFF"/>
<path d="M998.827 42.75L1060.83 119L998.827 195.25" stroke="#1F9CFF" stroke-width="24" stroke-linecap="round" stroke-linejoin="round"/>
<g filter="url(#filter0_d_9_33)">
<path d="M971.826 6.76436L971.942 6.39517C973.232 2.61887 977.333 0.129448 981.291 0.79059C985.249 1.45173 987.612 5.02089 986.718 8.86334L986.621 9.23575L923.224 230.326C922.083 234.308 917.845 236.982 913.76 236.3C909.674 235.617 907.288 231.836 908.429 227.855L971.826 6.76436Z" fill="#101526"/>
</g>
<path d="M947.827 139.833C942.063 139.833 937.15 137.802 933.087 133.74C929.025 129.677 926.994 124.764 926.994 119C926.994 113.236 929.025 108.323 933.087 104.26C937.15 100.198 942.063 98.1667 947.827 98.1667C953.591 98.1667 958.504 100.198 962.567 104.26C966.629 108.323 968.66 113.236 968.66 119C968.66 124.764 966.629 129.677 962.567 133.74C958.504 137.802 953.591 139.833 947.827 139.833ZM947.827 160.667C953.591 160.667 959.008 159.573 964.077 157.385C969.146 155.198 973.556 152.229 977.306 148.479C981.056 144.729 984.025 140.319 986.212 135.25C988.4 130.181 989.494 124.764 989.494 119C989.494 113.236 988.4 107.819 986.212 102.75C984.025 97.6806 981.056 93.2708 977.306 89.5208C973.556 85.7708 969.146 82.8021 964.077 80.6146C959.008 78.4271 953.591 77.3333 947.827 77.3333C942.063 77.3333 936.646 78.4271 931.577 80.6146C926.508 82.8021 922.098 85.7708 918.348 89.5208C914.598 93.2708 911.629 97.6806 909.442 102.75C907.254 107.819 906.16 113.236 906.16 119C906.16 124.764 907.254 130.181 909.442 135.25C911.629 140.319 914.598 144.729 918.348 148.479C922.098 152.229 926.508 155.198 931.577 157.385C936.646 159.573 942.063 160.667 947.827 160.667ZM947.827 152.333C938.521 152.333 930.639 149.104 924.181 142.646C917.723 136.188 914.494 128.306 914.494 119C914.494 109.694 917.723 101.813 924.181 95.3542C930.639 88.8958 938.521 85.6667 947.827 85.6667C957.133 85.6667 965.014 88.8958 971.473 95.3542C977.931 101.813 981.16 109.694 981.16 119C981.16 128.306 977.931 136.188 971.473 142.646C965.014 149.104 957.133 152.333 947.827 152.333Z" fill="#D9E11A"/>
</g>
</g>
<defs>
<filter id="filter0_d_9_33" x="904.144" y="0.684265" width="86.7623" height="243.722" filterUnits="userSpaceOnUse" color-interpolation-filters="sRGB">
<feFlood flood-opacity="0" result="BackgroundImageFix"/>
<feColorMatrix in="SourceAlpha" type="matrix" values="0 0 0 0 0 0 0 0 0 0 0 0 0 0 0 0 0 0 127 0" result="hardAlpha"/>
<feOffset dy="4"/>
<feGaussianBlur stdDeviation="2"/>
<feComposite in2="hardAlpha" operator="out"/>
<feColorMatrix type="matrix" values="0 0 0 0 0 0 0 0 0 0 0 0 0 0 0 0 0 0 0.25 0"/>
<feBlend mode="normal" in2="BackgroundImageFix" result="effect1_dropShadow_9_33"/>
<feBlend mode="normal" in="SourceGraphic" in2="effect1_dropShadow_9_33" result="shape"/>
</filter>
<clipPath id="clip0_9_33">
<rect width="1073" height="237" fill="white"/>
</clipPath>
<clipPath id="clip1_9_33">
<rect width="496" height="305" fill="white" transform="translate(709.827 -34)"/>
</clipPath>
</defs>
</svg>
