<svg width="284" height="238" viewBox="0 0 284 238" fill="none" xmlns="http://www.w3.org/2000/svg">
<path d="M184.464 7.20942L184.58 6.84023C185.87 3.06394 189.971 0.574516 193.929 1.23566C197.887 1.8968 200.25 5.46596 199.356 9.30841L199.259 9.68081L135.862 230.771C134.721 234.753 130.483 237.427 126.397 236.745C122.312 236.062 119.926 232.281 121.067 228.3L184.464 7.20942Z" fill="#101526"/>
<path d="M210 43L272 119.25L210 195.5" stroke="#1F9CFF" stroke-width="24" stroke-linecap="round" stroke-linejoin="round"/>
<path d="M160.667 139.5C154.903 139.5 149.99 137.469 145.927 133.406C141.865 129.344 139.833 124.431 139.833 118.667C139.833 112.903 141.865 107.99 145.927 103.927C149.99 99.8646 154.903 97.8333 160.667 97.8333C166.431 97.8333 171.344 99.8646 175.406 103.927C179.469 107.99 181.5 112.903 181.5 118.667C181.5 124.431 179.469 129.344 175.406 133.406C171.344 137.469 166.431 139.5 160.667 139.5ZM160.667 160.333C166.431 160.333 171.847 159.24 176.917 157.052C181.986 154.865 186.396 151.896 190.146 148.146C193.896 144.396 196.865 139.986 199.052 134.917C201.24 129.847 202.333 124.431 202.333 118.667C202.333 112.903 201.24 107.486 199.052 102.417C196.865 97.3472 193.896 92.9375 190.146 89.1875C186.396 85.4375 181.986 82.4688 176.917 80.2812C171.847 78.0937 166.431 77 160.667 77C154.903 77 149.486 78.0937 144.417 80.2812C139.347 82.4688 134.937 85.4375 131.187 89.1875C127.437 92.9375 124.469 97.3472 122.281 102.417C120.094 107.486 119 112.903 119 118.667C119 124.431 120.094 129.847 122.281 134.917C124.469 139.986 127.437 144.396 131.187 148.146C134.937 151.896 139.347 154.865 144.417 157.052C149.486 159.24 154.903 160.333 160.667 160.333ZM160.667 152C151.361 152 143.479 148.771 137.021 142.312C130.562 135.854 127.333 127.972 127.333 118.667C127.333 109.361 130.562 101.479 137.021 95.0208C143.479 88.5625 151.361 85.3333 160.667 85.3333C169.972 85.3333 177.854 88.5625 184.312 95.0208C190.771 101.479 194 109.361 194 118.667C194 127.972 190.771 135.854 184.312 142.312C177.854 148.771 169.972 152 160.667 152Z" fill="#D9E11A"/>
<path d="M12 165.595L49.8047 118.997L12 72.4" stroke="#101526" stroke-width="24" stroke-linecap="round" stroke-linejoin="round"/>
<path d="M98.9893 35.1799C103.17 30.0379 110.728 29.2587 115.87 33.4397C121.012 37.6207 121.791 45.1784 117.61 50.3205L61.7657 119L117.61 187.68L117.803 187.922C121.766 193.057 120.932 200.445 115.87 204.561C110.808 208.676 103.406 207.986 99.1875 203.059L98.9893 202.821L36.9893 126.571C33.4035 122.16 33.4035 115.84 36.9893 111.43L98.9893 35.1799Z" fill="#1F9CFF"/>
</svg>
